<?xml version="1.0" encoding="utf-8"?>
<!-- Generator: Adobe Illustrator 18.1.0, SVG Export Plug-In . SVG Version: 6.00 Build 0)  -->
<svg version="1.1" id="Layer_1" xmlns="http://www.w3.org/2000/svg" xmlns:xlink="http://www.w3.org/1999/xlink" x="0px" y="0px"
	 viewBox="0 0 1500 1500" enable-background="new 0 0 1500 1500" xml:space="preserve">
<g>
	<path fill="#BEC0C2" d="M968.8,245.9H536.5c-0.8,3.6-1.9,7.2-3.1,10.7c116.7,0,330.4,0,440.7,0
		C972.2,253.1,970.4,249.6,968.8,245.9z M414.4,322.7c-3.6-0.8-7.1-1.8-10.6-3L192,686.7c2.6,2.8,5,5.7,7.3,8.7
		C256.9,595.5,359.1,418.6,414.4,322.7z M1303.2,683.7l-218-377.7c-3.7,0.8-7.4,1.5-11.2,1.9c52.4,90.7,161.5,279.6,222.5,385.3
		C1298.5,689.9,1300.7,686.7,1303.2,683.7z M809.2,682c89.6-148.8,177-294,227.1-377.2c-3.5-1-7-2.1-10.4-3.4
		c-40.4,67-127.5,211.8-225.1,373.9C803.8,677.4,806.6,679.7,809.2,682z M182.8,835.4l212.6,368.2c3.4-1.3,6.8-2.5,10.3-3.4
		c-59.9-103.7-162-280.6-214.9-372.3C188.3,830.5,185.6,833,182.8,835.4z M639.5,765.3c-0.2-2.3-0.4-4.7-0.4-7
		c0-1.2,0.1-2.4,0.2-3.6c-64.9,0.4-127.1,0.8-183.8,1.2c0-53.6,0-107,0-157.8c45.5-25.7,93.6-52.9,141.8-80.1
		C625,566,655,618.4,686.1,672.4c3-1.9,6.1-3.7,9.2-5.3c-30.6-53.4-60.7-105.6-88.7-154.4C766,422.7,926.1,332.3,1003,288.8
		c-3.1-2.2-6.1-4.7-8.9-7.2L601.3,503.5c-44.2-77-83.1-144.7-111.1-193.3c-3,1.9-6.1,3.6-9.4,5.1c24.3,42.3,63.9,111.2,111.2,193.5
		l-136.6,77.1c0-109.6,0-205.7,0-262.3c-3.5,0.6-7,1.1-10.7,1.4l0,267l-231,130.5c1.2,3.4,2.3,6.9,3.1,10.5
		c48.6-27.5,132.1-74.6,227.9-128.7l0,151.9c-97.4,0.7-177.3,1.2-225,1.5c0,3.6-0.3,7.2-0.6,10.7c56.3-0.4,135.6-0.9,225.7-1.5
		l0.1,430.6c3.6,0.4,7.2,1.1,10.7,1.9c0-86.5,0-259.1-0.1-432.6C513.8,766.2,576.2,765.8,639.5,765.3z M1284.2,776.5
		c-43.3,24.5-131.1,74.1-233.5,131.9l4.2-145.9c102-0.7,183.7-1.2,226.1-1.5c-0.4-3.5-0.7-7-0.8-10.6c-53.9,0.4-133.6,0.9-225,1.5
		l12.6-443.7c-1.6,0.1-3.2,0.2-4.8,0.2c-2,0-3.9-0.2-5.9-0.3c-2.5,89.7-7.6,266.9-12.6,443.8c-63.5,0.4-132.1,0.9-201.2,1.3
		c0.1,1.7,0.3,3.3,0.3,5c0,1.9-0.2,3.8-0.3,5.7c71.2-0.5,139.5-0.9,200.9-1.3c-1.5,51.6-2.9,102.9-4.3,151.9
		c-49,27.7-101,57-152.8,86.3C859,952.1,828.5,898.8,797,844c-3,1.9-6.1,3.7-9.2,5.3c31.1,54.2,61.6,107.3,90.1,156.8
		c-163.3,92.3-323,182.5-379.4,214.4c2.9,2.4,5.5,5,8.1,7.7l376.6-212.8c48.9,85,91.2,158.6,119.5,207.9c2.7-2.4,5.4-4.7,8.3-6.9
		c-23.6-41.1-66.5-115.8-118.5-206.3l147.1-83.1c-3.4,117.9-6.3,220.8-7.9,277.5c3.5-1.5,7.1-2.7,10.8-3.8l8-279.8l237.3-134.1
		C1286.3,783.5,1285.2,780,1284.2,776.5z M695.8,849.7c-87.4,145.3-171.6,285.2-215.7,358.4c3.2,1.7,6.2,3.4,9.2,5.4
		c30.4-50.5,117.1-194.5,216.4-359.6C702.3,852.7,699.1,851.3,695.8,849.7z M1310.3,820.7c-51.3,88.8-156.5,271.1-218.2,377.9
		c3.6,0.7,7.2,1.7,10.7,2.9l215.6-373.5C1315.5,825.6,1312.8,823.2,1310.3,820.7z M534.7,1292h434.9c0.2-3.6,0.6-7.2,1.2-10.7
		c-111.3,0-321.9,0-437.3,0C534,1284.9,534.4,1288.4,534.7,1292z"/>
	<path d="M378.3,306.7c-2.9-2.1-5.8-4.3-8.4-6.7l-210,363.7c3.2,1.5,6.4,3.1,9.5,4.9C225.3,571.6,318.4,410.4,378.3,306.7z
		 M165.4,847l211.4,366.2c3-1.9,6-3.7,9.2-5.4c-57.6-99.7-152.5-264.2-211.5-366.3C171.6,843.6,168.5,845.4,165.4,847z
		 M1333.9,658.3l-212.5-368.2c-2.9,2-5.9,3.9-9,5.7c58.5,101.4,154.2,267.1,212.5,368.1C1327.7,661.9,1330.7,660,1333.9,658.3z
		 M960.9,208.1c0-0.6-0.1-1.2-0.1-1.9c0-3,0.2-5.9,0.4-8.8H535.8c0.9,3.5,1.6,7,2.2,10.7C655,208.1,844.7,208.1,960.9,208.1z
		 M704.3,663.1c-90.3-150-171-284.1-212.9-353.7c-3,1.9-6.1,3.6-9.3,5.2c46,76.5,126.4,209.9,212.4,352.9
		C697.7,665.9,701,664.4,704.3,663.1z M1282.4,769.8c-0.8-3.5-1.3-7.1-1.7-10.7c-48.9-0.3-121.8-0.8-208.3-1.4l-4.4-155.2
		c87,49.2,164.2,92.8,215.1,121.6c0.9-3.6,1.9-7,3.2-10.5l-218.7-123.5l-8-281.8c-3.6-0.1-7.2-0.4-10.7-0.9
		c1.8,62.7,4.7,163.1,7.9,276.5l-156.4-88.4c47.7-83,88.1-153.3,114.5-199.2c-3.1-1.7-6.2-3.5-9.1-5.5
		c-28,48.8-68.3,118.8-114.6,199.5L521,281.2c-2.1,2.9-4.3,5.8-6.6,8.5c76,42.9,222.3,125.6,371.4,209.9
		c-30.3,52.8-63.2,109.9-96.7,168.3c3.2,1.7,6.2,3.5,9.2,5.5c33.8-58.9,66.7-116.1,96.9-168.6c55,31.1,110.1,62.2,162.1,91.6
		c1.5,52,3,106.5,4.6,161.2c-66.7-0.4-141-0.9-218.2-1.5c0,0.7,0.1,1.4,0.1,2.1c0,2.9-0.2,5.7-0.4,8.5c75.2,0.5,150,1,218.9,1.5
		c4.6,162.9,9.3,326.1,12.2,428.3c3.6,0.1,7.2,0.4,10.7,0.9l-12.2-429.1C1154.5,768.9,1227.4,769.4,1282.4,769.8z M534.7,1293.1
		c0.1,1.9,0.3,3.7,0.3,5.6c0,1.7-0.2,3.4-0.3,5.1h434.7c-0.1-1.7-0.3-3.3-0.3-5.1c0-1.9,0.2-3.7,0.3-5.6
		C853.3,1293.1,654.3,1293.1,534.7,1293.1z M1326.7,834c-58,100.5-155.1,268.6-214.3,371.2c3.3,1.4,6.4,3.1,9.5,4.8l214-370.7
		C1332.8,837.7,1329.7,835.9,1326.7,834z M696.6,850.1c-3.2-1.6-6.3-3.3-9.3-5.2c-34.5,60-68,118.3-98.7,171.7
		c-51.2-28.9-102.2-57.7-150.5-85c0-53.9,0-110.7,0-167.5c62,0.4,130.2,0.9,201.3,1.3c-0.2-2.4-0.4-4.8-0.4-7.2
		c0-1.2,0.1-2.3,0.2-3.5c-69.3-0.5-137.6-0.9-201.1-1.3c0-165.5,0.1-330.3,0.1-428.3c-0.4,0-0.9,0.1-1.3,0.1c-3.2,0-6.3-0.2-9.4-0.5
		l-0.1,428.6c-79.9-0.5-151.7-1-207.9-1.4c0.1,1.5,0.2,3.1,0.2,4.6c0,2-0.2,4-0.3,6c51.4,0.3,123.6,0.8,208,1.4l0,161.5
		C339.9,876.1,262,832.2,209,802.2c-1.6,3.2-3.3,6.3-5.3,9.3l223.7,126.4l-0.1,258.9c1.8-0.1,3.5-0.3,5.3-0.3c1.8,0,3.6,0.2,5.3,0.3
		c0-61.5,0-151.8,0.1-252.8l145.2,82c-42.1,73.3-78.5,136.6-104.4,181.7c3.2,1.6,6.3,3.4,9.3,5.3c28.1-48.9,64.1-111.6,104.4-181.8
		l388.6,219.5c1.7-3.2,3.5-6.2,5.5-9.2c-89.2-50.4-239.3-135.2-388.8-219.6C629.1,967.8,662.5,909.5,696.6,850.1z M799.7,842.2
		c90,149.5,172.2,286.1,221.3,367.7c3.1-1.8,6.3-3.4,9.5-4.8c-55.3-91.9-138.1-229.4-222.4-369.5
		C805.4,837.9,802.6,840.1,799.7,842.2z"/>
	<g>
		<path fill="#55924E" enable-background="new    " d="M437,152.8c-38.7,0-70.3,31.5-70.3,70.3c0,38.7,31.5,70.3,70.3,70.3
			c38.7,0,70.3-31.5,70.3-70.3C507.2,184.3,475.7,152.8,437,152.8z"/>
		<path opacity="0.39" fill="#FFFFFE" d="M481.1,183c0,9.7-7.8,17.5-17.5,17.5c-9.7,0-17.5-7.8-17.5-17.5c0-9.7,7.8-17.5,17.5-17.5
			C473.3,165.5,481.1,173.3,481.1,183z"/>
	</g>
	<g>
		<path fill="#F10F83" enable-background="new    " d="M741.4,688c-38.7,0-70.3,31.5-70.3,70.3c0,38.7,31.5,70.3,70.3,70.3
			c38.7,0,70.3-31.5,70.3-70.3C811.6,719.6,780.1,688,741.4,688z"/>
		<path opacity="0.39" fill="#FFFFFF" d="M785.6,718.3c0,9.7-7.8,17.5-17.5,17.5c-9.7,0-17.5-7.8-17.5-17.5
			c0-9.7,7.8-17.5,17.5-17.5C777.7,700.7,785.6,708.6,785.6,718.3z"/>
	</g>
	<g>
		<path fill="#55924E" enable-background="new    " d="M1382.4,678c-38.7,0-70.3,31.5-70.3,70.3c0,38.8,31.5,70.3,70.3,70.3
			c38.7,0,70.3-31.5,70.3-70.3C1452.7,709.5,1421.1,678,1382.4,678z"/>
		<path opacity="0.39" fill="#FFFFFE" d="M1426.6,708.2c0,9.7-7.8,17.5-17.5,17.5c-9.7,0-17.5-7.8-17.5-17.5
			c0-9.7,7.9-17.5,17.5-17.5C1418.7,690.7,1426.6,698.6,1426.6,708.2z"/>
	</g>
	<g>
		<path fill="#55924E" enable-background="new    " d="M432.8,1228.5c-38.7,0-70.3,31.5-70.3,70.3c0,38.7,31.5,70.3,70.3,70.3
			c38.7,0,70.3-31.5,70.3-70.3C503,1260,471.5,1228.5,432.8,1228.5z"/>
		<path opacity="0.39" fill="#FFFFFE" d="M476.9,1258.7c0,9.7-7.8,17.5-17.5,17.5c-9.7,0-17.5-7.8-17.5-17.5s7.8-17.5,17.5-17.5
			C469.1,1241.2,476.9,1249,476.9,1258.7z"/>
	</g>
	<g>
		<path fill="#00A9DE" enable-background="new    " d="M1063,136c-38.7,0-70.3,31.5-70.3,70.3c0,38.7,31.5,70.3,70.3,70.3
			c38.7,0,70.3-31.5,70.3-70.3C1133.3,167.5,1101.8,136,1063,136z"/>
		<path opacity="0.39" fill="#FFFFFF" d="M1107.2,166.2c0,9.7-7.8,17.5-17.5,17.5c-9.7,0-17.5-7.8-17.5-17.5
			c0-9.7,7.8-17.5,17.5-17.5C1099.4,148.7,1107.2,156.5,1107.2,166.2z"/>
	</g>
	<g>
		<path fill="#00A9DE" enable-background="new    " d="M1071.4,1228.5c-38.7,0-70.3,31.5-70.3,70.3c0,38.7,31.5,70.3,70.3,70.3
			c38.7,0,70.3-31.5,70.3-70.3C1141.7,1260,1110.2,1228.5,1071.4,1228.5z"/>
		<path opacity="0.39" fill="#FFFFFF" d="M1115.6,1258.7c0,9.7-7.8,17.5-17.5,17.5c-9.7,0-17.5-7.8-17.5-17.5s7.8-17.5,17.5-17.5
			C1107.8,1241.2,1115.6,1249,1115.6,1258.7z"/>
	</g>
	<g>
		<path fill="#00A9DE" enable-background="new    " d="M117.6,686.4c-38.7,0-70.3,31.5-70.3,70.3c0,38.7,31.5,70.3,70.3,70.3
			c38.7,0,70.3-31.5,70.3-70.3C187.9,717.9,156.3,686.4,117.6,686.4z"/>
		<path opacity="0.39" fill="#FFFFFF" d="M161.8,716.6c0,9.7-7.8,17.5-17.5,17.5c-9.7,0-17.5-7.8-17.5-17.5
			c0-9.7,7.8-17.5,17.5-17.5C154,699.1,161.8,707,161.8,716.6z"/>
	</g>
</g>
</svg>
